<?xml version="1.0" encoding="utf-8"?>
<!-- Generator: Adobe Illustrator 22.1.0, SVG Export Plug-In . SVG Version: 6.00 Build 0)  -->
<svg version="1.1" id="Layer_1" xmlns="http://www.w3.org/2000/svg" xmlns:xlink="http://www.w3.org/1999/xlink" x="0px" y="0px"
	 viewBox="0 0 106.5 36" style="enable-background:new 0 0 106.5 36;" xml:space="preserve">
<style type="text/css">
	.st0{fill:#FFFFFF;}
	.st1{fill:none;stroke:#FFFFFF;stroke-width:0.25;stroke-linejoin:round;stroke-miterlimit:10;}
	.st2{fill:none;stroke:#FFFFFF;stroke-width:0.25;stroke-linecap:round;stroke-linejoin:round;stroke-miterlimit:10;}
</style>
<g>
	<path class="st0" d="M48.1,19.1c0,0.1-0.1,0.1-0.2,0.1c-0.1,0-0.1,0-0.2,0c-0.1,0-0.2,0-0.2-0.1c-0.1,0-0.2-0.1-0.3-0.1
		c-0.1,0-0.2-0.1-0.4-0.1c-0.1,0-0.3-0.1-0.5-0.1c-0.3,0-0.5,0.1-0.7,0.2c-0.2,0.1-0.2,0.2-0.2,0.4c0,0.1,0,0.2,0.1,0.3
		c0.1,0.1,0.2,0.1,0.4,0.2c0.1,0.1,0.3,0.1,0.5,0.1c0.2,0,0.4,0.1,0.6,0.2c0.2,0.1,0.4,0.1,0.6,0.2c0.2,0.1,0.4,0.2,0.5,0.3
		c0.1,0.1,0.3,0.3,0.4,0.4c0.1,0.2,0.1,0.4,0.1,0.6c0,0.3-0.1,0.5-0.2,0.7c-0.1,0.2-0.3,0.4-0.5,0.6c-0.2,0.2-0.5,0.3-0.8,0.4
		c-0.3,0.1-0.7,0.1-1.1,0.1c-0.2,0-0.4,0-0.7-0.1c-0.2,0-0.4-0.1-0.7-0.2c-0.2-0.1-0.4-0.1-0.6-0.2c-0.2-0.1-0.4-0.2-0.5-0.3
		l0.5-0.6c0,0,0.1-0.1,0.2-0.1c0.1,0,0.1,0,0.2,0c0.1,0,0.2,0,0.3,0.1c0.1,0,0.2,0.1,0.3,0.2c0.1,0.1,0.3,0.1,0.4,0.2
		c0.2,0,0.4,0.1,0.6,0.1c0.3,0,0.5-0.1,0.7-0.2c0.2-0.1,0.2-0.3,0.2-0.5c0-0.1,0-0.2-0.1-0.3c-0.1-0.1-0.2-0.2-0.4-0.2
		c-0.1-0.1-0.3-0.1-0.5-0.1c-0.2,0-0.4-0.1-0.6-0.1c-0.2-0.1-0.4-0.1-0.6-0.2c-0.2-0.1-0.4-0.2-0.5-0.3c-0.1-0.1-0.3-0.3-0.4-0.5
		c-0.1-0.2-0.1-0.4-0.1-0.7c0-0.2,0.1-0.4,0.2-0.6c0.1-0.2,0.3-0.4,0.5-0.5c0.2-0.2,0.5-0.3,0.8-0.4c0.3-0.1,0.6-0.1,1-0.1
		c0.2,0,0.4,0,0.6,0c0.2,0,0.4,0.1,0.6,0.1c0.2,0.1,0.4,0.1,0.5,0.2c0.2,0.1,0.3,0.2,0.4,0.3L48.1,19.1z"/>
	<path class="st0" d="M56.6,20.8c0,0.4-0.1,0.8-0.3,1.1c-0.2,0.4-0.4,0.7-0.7,0.9c-0.3,0.3-0.7,0.5-1.2,0.6c-0.5,0.1-1,0.2-1.5,0.2
		c-0.6,0-1.1-0.1-1.5-0.2c-0.5-0.1-0.8-0.4-1.2-0.6c-0.3-0.3-0.6-0.6-0.7-0.9c-0.2-0.4-0.3-0.7-0.3-1.1c0-0.4,0.1-0.8,0.3-1.1
		c0.2-0.4,0.4-0.7,0.7-0.9c0.3-0.3,0.7-0.5,1.2-0.6c0.5-0.1,1-0.2,1.5-0.2c0.6,0,1.1,0.1,1.5,0.2c0.5,0.1,0.8,0.4,1.2,0.6
		c0.3,0.3,0.6,0.6,0.7,0.9C56.5,20,56.6,20.4,56.6,20.8 M54.9,20.8c0-0.3,0-0.5-0.1-0.8c-0.1-0.2-0.2-0.4-0.4-0.6
		c-0.2-0.2-0.4-0.3-0.6-0.4C53.5,19,53.2,19,52.9,19c-0.3,0-0.6,0-0.8,0.1c-0.2,0.1-0.5,0.2-0.6,0.4c-0.2,0.2-0.3,0.3-0.4,0.6
		c-0.1,0.2-0.1,0.5-0.1,0.8c0,0.3,0,0.5,0.1,0.8c0.1,0.2,0.2,0.4,0.4,0.6c0.2,0.2,0.4,0.3,0.6,0.4c0.2,0.1,0.5,0.1,0.8,0.1
		c0.3,0,0.6,0,0.8-0.1c0.2-0.1,0.5-0.2,0.6-0.4c0.2-0.2,0.3-0.3,0.4-0.6C54.8,21.3,54.9,21.1,54.9,20.8"/>
	<polygon class="st0" points="59.2,19 59.2,20.4 61.6,20.4 61.6,21.4 59.2,21.4 59.2,23.6 57.5,23.6 57.5,18 62.1,18 62.1,19 	"/>
	<polygon class="st0" points="68.1,19 66.1,19 66.1,23.6 64.5,23.6 64.5,19 62.5,19 62.5,18 68.1,18 	"/>
	<path class="st0" d="M78.6,18l-2.2,5.7h-1.5l-1.3-3.5c0-0.1-0.1-0.1-0.1-0.2c0-0.1,0-0.1-0.1-0.2c0,0.1,0,0.1-0.1,0.2
		c0,0.1,0,0.1-0.1,0.2l-1.4,3.5h-1.5L68.3,18h1.4c0.1,0,0.3,0,0.4,0.1c0.1,0.1,0.2,0.1,0.2,0.2l1,3c0,0.1,0.1,0.2,0.1,0.3
		c0,0.1,0.1,0.2,0.1,0.3c0.1-0.2,0.1-0.5,0.2-0.6l1.1-3c0-0.1,0.1-0.1,0.2-0.2C73,18,73.1,18,73.2,18h0.5c0.1,0,0.3,0,0.3,0.1
		c0.1,0.1,0.2,0.1,0.2,0.2l1.1,3c0.1,0.2,0.2,0.4,0.2,0.6c0-0.1,0.1-0.2,0.1-0.3c0-0.1,0.1-0.2,0.1-0.3l1-3c0-0.1,0.1-0.1,0.2-0.2
		C77,18,77.2,18,77.3,18H78.6z"/>
	<path class="st0" d="M85.1,23.6h-1.3c-0.1,0-0.3,0-0.3-0.1c-0.1-0.1-0.2-0.1-0.2-0.2l-0.4-1h-2.7l-0.4,1c0,0.1-0.1,0.1-0.2,0.2
		c-0.1,0.1-0.2,0.1-0.3,0.1H78l2.7-5.7h1.7L85.1,23.6z M82.5,21.5l-0.7-1.6c0-0.1-0.1-0.2-0.2-0.3c-0.1-0.1-0.1-0.3-0.2-0.4
		c0,0.2-0.1,0.3-0.2,0.4c-0.1,0.1-0.1,0.3-0.2,0.3l-0.7,1.5H82.5z"/>
	<path class="st0" d="M91.5,23.6H90c-0.3,0-0.5-0.1-0.6-0.2l-1.2-1.6c-0.1-0.1-0.1-0.1-0.2-0.2c-0.1,0-0.2,0-0.3,0h-0.4v2.1h-1.6V18
		H88c0.5,0,0.9,0,1.3,0.1c0.4,0.1,0.7,0.2,0.9,0.4c0.2,0.2,0.4,0.3,0.5,0.5c0.1,0.2,0.2,0.4,0.2,0.7c0,0.2,0,0.4-0.1,0.5
		c-0.1,0.2-0.2,0.3-0.3,0.5c-0.1,0.1-0.3,0.3-0.4,0.4c-0.2,0.1-0.4,0.2-0.6,0.3c0.1,0,0.2,0.1,0.3,0.2c0.1,0.1,0.2,0.1,0.3,0.2
		L91.5,23.6z M88,20.6c0.2,0,0.4,0,0.6-0.1c0.2,0,0.3-0.1,0.4-0.2c0.1-0.1,0.2-0.2,0.2-0.3c0-0.1,0.1-0.2,0.1-0.3
		c0-0.2-0.1-0.4-0.3-0.6C88.7,19,88.4,19,88,19h-0.7v1.7H88z"/>
	<polygon class="st0" points="93.7,19 93.7,20.3 96,20.3 96,21.3 93.7,21.3 93.7,22.6 96.6,22.6 96.6,23.6 92.1,23.6 92.1,18 
		96.6,18 96.6,19 	"/>
	<path class="st0" d="M49,11.7V16h-0.3v-3.7c0-0.1,0-0.1,0-0.2l-2.1,3c0,0.1-0.1,0.1-0.2,0.1h-0.1c-0.1,0-0.1,0-0.2-0.1l-2.2-3
		c0,0.1,0,0.1,0,0.2V16h-0.3v-4.3h0.3c0,0,0.1,0,0.1,0c0,0,0,0,0.1,0l2.2,3c0,0.1,0.1,0.1,0.1,0.2c0,0,0-0.1,0-0.1
		c0,0,0-0.1,0.1-0.1l2.1-3c0,0,0,0,0.1,0c0,0,0.1,0,0.1,0H49z"/>
	<rect x="50.7" y="11.7" class="st0" width="0.4" height="4.3"/>
	<path class="st0" d="M57.2,13.9c0,0.3-0.1,0.6-0.2,0.9c-0.1,0.3-0.3,0.5-0.5,0.7c-0.2,0.2-0.5,0.3-0.8,0.4C55.4,16,55,16,54.6,16
		h-2v-4.3h2c0.4,0,0.7,0.1,1.1,0.2c0.3,0.1,0.6,0.2,0.8,0.4c0.2,0.2,0.4,0.4,0.5,0.7C57.2,13.2,57.2,13.5,57.2,13.9 M56.8,13.9
		c0-0.3-0.1-0.6-0.2-0.8c-0.1-0.2-0.3-0.4-0.4-0.6c-0.2-0.2-0.4-0.3-0.7-0.4C55.3,12,55,12,54.6,12h-1.6v3.8h1.6
		c0.3,0,0.6,0,0.9-0.1c0.3-0.1,0.5-0.2,0.7-0.4c0.2-0.2,0.3-0.4,0.4-0.6C56.8,14.4,56.8,14.2,56.8,13.9"/>
	<polyline class="st1" points="22.2,28.7 22.2,34 39.1,26 39.1,18 39.1,9.9 22.2,1.8 22.2,7.3 	"/>
	<polyline class="st1" points="22.2,28.6 22.2,34 5.3,26 5.2,18 5.3,9.9 22.2,1.8 22.2,7 	"/>
	<path class="st2" d="M10.9,17.9l5.7-2.7l-5.6-2.7C10.9,12.5,10.9,17.9,10.9,17.9z"/>
	<polygon class="st2" points="16.5,20.6 10.9,23.3 16.6,26 22.2,28.6 22.2,23.3 	"/>
	<polyline class="st2" points="22.2,28.6 27.8,26 33.4,23.3 	"/>
	<polyline class="st2" points="33.4,23.3 27.8,20.6 22.2,23.3 	"/>
	<path class="st2" d="M33.4,23.3c0,0,0-5.4,0.1-5.4l-5.7,2.7"/>
	<polyline class="st2" points="33.5,17.9 27.9,15.2 22.2,12.5 16.5,15.2 22.2,17.9 27.8,20.6 	"/>
	<line class="st2" x1="10.9" y1="17.9" x2="16.5" y2="20.6"/>
	<polyline class="st2" points="22.2,12.5 22.2,7.2 16.6,9.9 10.9,12.5 	"/>
	<line class="st2" x1="27.9" y1="15.2" x2="33.5" y2="12.5"/>
	<polyline class="st2" points="33.5,12.5 27.8,9.9 22.2,7.2 	"/>
	<line class="st2" x1="27.8" y1="9.9" x2="33.5" y2="12.5"/>
</g>
</svg>
